<?xml version="1.0" standalone="no"?><!DOCTYPE svg PUBLIC "-//W3C//DTD SVG 1.1//EN" "http://www.w3.org/Graphics/SVG/1.1/DTD/svg11.dtd"><svg t="1543911916571" class="icon" style="" viewBox="0 0 1024 1024" version="1.1" xmlns="http://www.w3.org/2000/svg" p-id="4042" xmlns:xlink="http://www.w3.org/1999/xlink" width="35" height="35"><defs><style type="text/css"></style></defs><path d="M978.850909 483.84a50.269091 50.269091 0 0 0-47.941818-5.818182l-418.909091 162.909091-418.909091-176.872727a50.501818 50.501818 0 0 0-48.64 5.818182A51.432727 51.432727 0 0 0 23.272727 512v392.378182a51.665455 51.665455 0 0 0 51.432728 51.898182h874.58909A51.665455 51.665455 0 0 0 1000.727273 904.378182V526.196364a52.130909 52.130909 0 0 0-21.876364-42.356364z" fill="#6E4FC4" p-id="4043"></path><path d="M821.527273 67.723636H202.472727A59.345455 59.345455 0 0 0 144.290909 128V418.909091L512 574.836364l367.709091-142.894546V128a59.345455 59.345455 0 0 0-58.181818-60.276364zM642.094545 330.472727a35.607273 35.607273 0 0 0-3.025454 3.025455l-124.043636 121.250909a11.636364 11.636364 0 0 1-16.523637 0l-124.043636-121.250909-2.094546-3.025455a94.487273 94.487273 0 0 1-23.272727-85.643636 89.134545 89.134545 0 0 1 65.629091-68.421818 86.341818 86.341818 0 0 1 93.090909 37.003636 86.807273 86.807273 0 0 1 93.090909-37.003636 89.134545 89.134545 0 0 1 65.629091 68.421818 95.185455 95.185455 0 0 1-23.272727 85.643636z" fill="#6E4FC4" p-id="4044"></path></svg>