<?xml version="1.0" standalone="no"?><!DOCTYPE svg PUBLIC "-//W3C//DTD SVG 1.1//EN" "http://www.w3.org/Graphics/SVG/1.1/DTD/svg11.dtd"><svg t="1545371974711" class="icon" style="" viewBox="0 0 1032 1024" version="1.1" xmlns="http://www.w3.org/2000/svg" p-id="13517" xmlns:xlink="http://www.w3.org/1999/xlink" width="16.125" height="16"><defs><style type="text/css"></style></defs><path d="M139.264 739.328c-4.096 0-7.68 3.584-7.68 7.68 0 2.048 0.512 3.584 2.048 5.12 1.536 1.536 3.584 2.048 5.632 2.048h37.888c4.096 0 7.68-3.584 7.68-7.68s-3.584-7.68-7.68-7.68h-37.888zM877.056 855.552c4.096 0 7.168-3.584 7.168-7.68s-3.072-7.68-7.168-7.68h-265.216c-4.096 0-7.168 3.584-7.168 7.68s3.072 7.68 7.168 7.68H877.056zM951.296 840.704c-4.096 0-7.168 3.584-7.168 7.68s3.072 7.68 7.168 7.68h57.856c4.096 0 7.168-3.584 7.168-7.68s-3.072-7.68-7.168-7.68H951.296zM300.032 805.376h464.384c4.096 0 7.68-3.584 7.68-7.68s-3.584-7.68-7.68-7.68h-464.384c-4.096 0-7.68 3.584-7.68 7.68s3.584 7.68 7.68 7.68zM515.072 906.24c4.096 0 7.168-3.072 7.168-7.168 0-4.096-3.072-7.168-7.168-7.168h-58.368c-4.096 0-7.168 3.072-7.168 7.168 0 4.096 3.072 7.168 7.168 7.168h58.368zM342.528 120.832c-38.4 0-69.632 28.16-69.632 62.976v427.52c0 34.304 30.72 61.44 69.632 61.44h337.408c38.912 0 69.632-27.136 69.632-61.44v-353.28L598.528 120.832h-256z m390.144 490.496c0 25.088-23.04 44.544-52.736 44.544h-337.408c-29.696 0-52.736-19.456-52.736-44.544V183.808c0-25.6 23.552-46.08 52.736-46.08h249.344l140.8 128.512v345.088zM221.184 741.376c-1.536 1.536-2.048 3.072-2.048 5.12 0 4.096 3.584 7.68 7.68 7.68h118.272c4.096 0 7.68-3.584 7.68-7.68 0-2.048-3.584-5.632-7.168-7.68h-118.784c-2.56 0.512-4.608 1.536-5.632 2.56zM815.104 739.328H721.92c-2.048 0-4.096 1.024-5.12 2.048s-2.048 3.072-2.048 5.12c0 4.096 3.584 7.68 7.68 7.68h92.672c4.096 0 7.68-3.584 7.68-7.68-0.512-3.584-4.096-7.168-7.68-7.168zM381.952 891.904v-5.12 5.12H20.48c-4.096 0-7.168 3.072-7.168 7.168 0 4.096 3.072 7.168 7.168 7.168h361.472c4.096 0 7.168-3.072 7.168-7.168 0-4.096-3.072-7.168-7.168-7.168z" fill="#707070" p-id="13518"></path><path d="M625.152 461.824c0-4.608-3.584-8.704-8.704-8.704h-210.944c-4.608 0-8.704 3.584-8.704 8.704s3.584 8.704 8.704 8.704h210.944c5.12-0.512 8.704-4.096 8.704-8.704zM625.152 361.984c0-4.608-3.584-8.704-8.704-8.704h-210.944c-4.608 0-8.704 3.584-8.704 8.704s3.584 8.704 8.704 8.704h210.944c5.12-0.512 8.704-4.096 8.704-8.704zM625.152 563.712c0-4.608-3.584-8.704-8.704-8.704h-210.944c-4.608 0-8.704 3.584-8.704 8.704s3.584 8.704 8.704 8.704h210.944c5.12-0.512 8.704-4.096 8.704-8.704zM228.864 253.952l-51.2-0.512c-4.096 0-7.168-3.584-7.168-7.168 0-4.096 3.584-7.168 7.168-7.168l50.688 0.512c4.096 0 7.168 3.072 7.68 7.168 0 4.096-3.072 7.168-7.168 7.68 0.512-0.512 0-0.512 0-0.512z" fill="#707070" p-id="13519"></path><path d="M202.752 279.04c-4.096 0-7.168-3.584-7.168-7.168l0.512-50.688c0-4.096 3.584-7.168 7.168-7.168 4.096 0 7.168 3.584 7.168 7.168l-0.512 50.688c0 4.096-3.072 7.168-7.168 7.168z m549.376-125.952l-52.736-0.512c-4.096 0-7.168-3.072-7.168-7.168 0-4.096 3.072-7.168 7.168-7.168l52.736 0.512c4.096 0 7.168 3.072 7.168 7.168 0 4.096-3.072 7.168-7.168 7.168z" fill="#707070" p-id="13520"></path><path d="M725.504 179.2c-4.096 0-7.168-3.584-7.168-7.168l0.512-52.736c0-4.096 3.584-7.168 7.168-7.168 4.096 0 7.168 3.584 7.168 7.168l-0.512 52.736c0 4.096-3.584 7.168-7.168 7.168z m126.464 72.192l-41.984-0.512c-4.096 0-7.168-3.584-7.168-7.168 0-4.096 3.072-7.168 7.168-7.168l41.984 0.512c4.096 0 7.168 3.072 7.168 7.168 0 3.584-3.072 7.168-7.168 7.168z" fill="#707070" p-id="13521"></path><path d="M830.976 271.872c-4.096 0-7.168-3.584-7.168-7.168l0.512-41.984c0-4.096 3.072-7.168 7.168-7.168 4.096 0 7.168 3.584 7.168 7.168l-0.512 41.984c0 4.096-3.584 7.168-7.168 7.168zM586.752 129.536c-2.048 0-4.608 1.024-6.144 2.56s-2.56 3.584-2.56 6.144v90.624c0 32.768 26.624 59.904 59.904 59.904h101.376c2.048 0 4.608-1.024 6.144-2.56 1.536-1.536 2.56-3.584 2.56-6.144 0-2.048-1.024-4.608-2.56-6.144-1.536-1.536-3.584-2.56-6.144-2.56h-101.376c-23.552 0-42.496-18.944-42.496-42.496V138.24c-0.512-4.608-4.096-8.704-8.704-8.704z" fill="#707070" p-id="13522"></path></svg>