<?xml version="1.0" standalone="no"?><!DOCTYPE svg PUBLIC "-//W3C//DTD SVG 1.1//EN" "http://www.w3.org/Graphics/SVG/1.1/DTD/svg11.dtd"><svg t="1545371725739" class="icon" style="" viewBox="0 0 1024 1024" version="1.1" xmlns="http://www.w3.org/2000/svg" p-id="8730" xmlns:xlink="http://www.w3.org/1999/xlink" width="16" height="16"><defs><style type="text/css"></style></defs><path d="M660.389927 145.347428c12.406224 0 22.379855-9.973631 22.379855-22.379855s-9.973631-22.379855-22.379855-22.379855-22.379855 9.973631-22.379855 22.379855 9.852001 22.379855 22.379855 22.379855z m0-39.408005c9.000594 0 16.906521 7.419408 16.906521 16.906521 0 9.487112-7.419408 16.906521-16.906521 16.906521-9.487112 0-16.906521-7.419408-16.906521-16.906521 0-9.365483 7.419408-16.906521 16.906521-16.906521zM116.340515 796.43093h13.98741v161.88906h-13.98741zM161.221855 698.883953c12.892743-37.82682 25.420596-76.261789 38.313339-114.575128l-13.500891-4.500297c-12.892743 37.82682-25.420596 76.261789-38.313339 114.575128l-27.853189 83.681197 13.500891 4.500297 27.853189-83.681197zM46.646727 137.319872c4.986816 3.040741 10.946668 3.040741 15.933484 0s8.027557-8.027557 8.027557-13.98741c0-9.000594-6.93289-15.933484-15.933484-15.933483-9.000594 0.486519-15.933484 7.419408-15.933484 15.933483-0.12163 5.594964 2.919112 11.068298 7.905927 13.98741z" fill="#707070" p-id="8731"></path><path d="M660.876446 785.484262c-9.000594-27.366671-18.487706-54.854971-27.366671-82.221642-13.987409-41.35408-27.366671-82.70816-41.35408-124.06224-2.432593-8.514075-10.46015-14.473928-18.974225-13.987409H431.361301c-0.12163 0.486519-0.364889 0.973037-0.608148 1.459555-2.919112 4.378667-6.203112 8.757335-9.608742 12.892743H573.789618c2.432593 0 4.500297 1.946074 5.473334 4.500297 13.987409 41.35408 27.366671 82.70816 41.354081 124.06224 9.000594 27.366671 18.487706 54.854971 27.36667 82.221642 0.486519 1.946074 0.486519 4.500297 0.486519 6.93289v165.902838c-0.486519 3.52726-0.973037 4.500297-1.459556 4.986816l-0.486519 0.486519c-0.973037 0.486519-2.432593 0.973037-5.473334 0.973037H140.788074c-3.52726 0-6.93289 0-8.514075-1.459556l-0.486519-0.486519c-1.459556-1.459556-1.459556-4.986816-1.459555-8.514075v-0.729778h-13.98741v0.973037c0 5.473334 0 13.500891 5.959853 18.974225 4.986816 4.986816 11.433187 5.473334 16.420002 5.473334h501.722295c3.52726 0 10.46015-0.486519 15.446965-5.473334 4.013778-3.52726 5.959853-8.514075 5.959853-15.446965v-165.41632c0-3.52726 0-7.419408-0.973037-11.433187v-0.608148zM210.968381 565.3346c-3.040741 0-6.93289 0-10.946669 0.973037-6.446371 1.459556-11.433187 6.446371-13.50089 12.892743l13.50089 4.500297c0.486519-1.459556 1.946074-3.040741 3.52726-3.52726 1.946074-0.486519 4.986816-0.486519 7.419409-0.486518h198.986103c4.135408-4.743556 8.027557-9.487112 11.676446-14.473928H210.968381zM132.760517 784.024706l0.486519-1.459556-13.500891-4.500297-0.486518 1.459556c-1.459556 4.986816-3.52726 10.46015-3.040742 16.906521l13.98741-1.459556c0.12163-3.52726 1.094667-6.93289 2.554222-10.946668zM481.959235 522.520964c9.973631-5.473334 20.433781-12.892743 30.89393-21.893336 0.973037-0.973037 1.459556-2.554223 1.459556-4.013778-0.486519-1.459556-1.459556-3.040741-3.040741-3.040742-1.946074-0.973037-3.52726-0.486519-4.500297 0.486519-9.973631 8.514075-19.460744 15.933484-29.434375 20.920299-1.946074 0.973037-3.040741 3.52726-1.459556 5.959853 1.094667 2.067704 3.648889 3.040741 6.081483 1.581185zM522.826796 484.085996c1.459556 1.459556 4.500297 1.459556 5.959853 0 7.419408-8.027557 14.960447-16.906521 22.379855-26.880152 0.486519-0.973037 0.973037-1.946074 0.973037-3.040741-0.486519-0.486519-0.973037-1.459556-1.946074-2.432593-0.973037-0.486519-1.946074-0.973037-3.040741-0.973037-0.973037 0-1.946074 0.486519-3.040742 1.459555-6.93289 9.487112-14.473928 18.487706-21.893336 25.907115-1.337926 1.459556-1.337926 4.500297 0.608148 5.959853zM457.146787 491.627034c-0.486519-0.973037-1.946074-1.459556-3.040742-1.459556-2.432593 0-4.500297 1.459556-4.500296 4.013779-0.973037 10.946668-3.040741 21.893337-6.93289 32.353486-1.459556 0-3.52726 0-4.986816 0.486518-2.432593 0-4.013778 1.946074-4.013778 4.013779 0 2.432593 1.946074 4.013778 4.500297 4.013778h1.459555c-1.459556 4.013778-3.52726 8.027557-5.473334 11.919706-0.973037 1.946074 0 4.500297 1.946075 5.473334 1.946074 0.973037 4.500297 0.486519 5.473334-1.459556 3.040741-5.473334 5.473334-10.946668 7.419408-16.420002 3.52726-0.486519 6.93289-1.459556 10.46015-2.432593 2.432593-0.486519 3.52726-3.040741 3.040741-4.986816-0.486519-3.040741-3.040741-4.500297-5.473334-3.52726-1.459556 0.486519-3.52726 0.973037-4.986816 1.459556 3.040741-9.973631 4.986816-20.433781 5.959853-30.407412 0.12163-1.094667-0.364889-2.067704-0.851407-3.040741zM395.358926 519.480223c-0.973037 1.946074 0 4.500297 1.946074 5.473334 9.000594 4.500297 17.879558 7.419408 27.366671 9.000594h0.486518c1.946074 0 4.013778-1.459556 4.013779-4.013778 0-1.946074-1.459556-4.013778-3.52726-4.500297-8.514075-0.973037-16.420002-4.013778-24.934078-8.027557-1.946074-0.973037-4.378667 0.12163-5.351704 2.067704zM432.212709 432.758285c9.487112 7.419408 15.446965 20.433781 16.906521 37.340302 0 1.459556 0.973037 3.040741 2.432593 3.527259 1.459556 0.486519 3.040741 0.486519 4.500297-0.486518 0.973037-0.973037 1.946074-2.554223 1.459556-4.013779-1.946074-18.974225-9.000594-33.326523-19.947263-42.813635-1.946074-1.459556-4.500297-0.973037-5.959852 0.486518-1.459556 1.459556-1.459556 4.500297 0.608148 5.959853zM354.491364 476.180069c1.946074-0.973037 3.52726-3.52726 3.040742-5.473334-0.973037-3.52726-0.973037-6.93289-0.486519-10.46015l4.013778-12.892743c1.946074-3.52726 4.013778-6.446371 6.446372-9.000593 1.459556-1.459556 1.459556-4.500297 0-5.959853-1.459556-1.459556-4.500297-1.459556-5.959853 0-10.946668 11.433187-15.446965 25.907115-11.919705 40.867561 0.364889 2.432593 2.797482 3.40563 4.865185 2.919112zM380.398479 427.771469c0.486519 0 0.973037 0 1.946075-0.486518 11.433187-4.986816 23.961041-6.446371 34.907708-3.52726 2.432593 0.486519 4.500297-0.486519 5.473334-3.040741 0.486519-2.432593-0.486519-4.500297-3.040741-5.473334-12.892743-3.52726-27.366671-2.432593-40.381043 3.527259-1.946074 0.973037-3.040741 3.040741-2.554222 4.986816 0.12163 2.554223 1.581185 4.013778 3.648889 4.013778zM606.507993 325.237677l40.502673-31.866968c-5.230075-4.257038-8.514075-9.973631-8.514075-16.176743 0-13.379261 14.960447-24.325929 33.326523-24.325929 7.662668 0 14.717187 1.824445 20.312151 4.986815l31.01556-24.325929-25.907115 27.974819c4.986816 4.257038 7.905927 9.730372 7.905927 15.690224 0 13.379261-14.960447 24.325929-33.326523 24.325929-3.648889 0-7.297779-0.486519-10.581779-1.216296l-26.758523 28.947856 88.668013 29.434375 48.773489-178.309063-236.083146 113.115572 70.666825 31.745338zM358.505143 485.667181c-1.946074 1.459556-2.554223 4.013778-0.973037 5.959853 4.500297 6.446371 10.46015 13.014372 17.393039 18.974225 2.432593 1.946074 5.473334 4.500297 8.027557 6.446371 1.946074 1.459556 4.500297 0.973037 5.959853-0.973037 1.459556-1.946074 0.973037-4.500297-0.973038-5.959853l-7.419408-5.959852c-6.446371-5.473334-11.919705-11.433187-15.933484-17.39304-1.702815-2.189334-4.135408-2.675852-6.081482-1.094667zM598.602066 380.944055c9.973631-18.974225 15.446965-31.866968 15.446966-32.353486 0.973037-1.946074 0-4.500297-1.946075-5.473334-0.973037-0.486519-1.946074-0.486519-3.52726 0-0.973037 0.486519-1.946074 0.973037-2.432592 2.432593 0 0-5.473334 12.892743-14.960447 31.866967-0.973037 1.946074-0.486519 4.500297 1.946074 5.473334 1.946074 1.094667 4.500297 0.608148 5.473334-1.946074zM633.996294 351.144792l-4.986816 54.246822 30.407412-39.894524zM561.261765 440.299323c1.459556 0 3.040741-0.486519 4.013778-1.946074 7.419408-11.433187 14.960447-23.474522 21.893337-35.394228 0.486519-0.973037 0.486519-1.946074 0.486518-3.040741-0.486519-1.459556-1.459556-1.946074-2.432593-2.432593s-1.946074-0.486519-3.040741-0.486518c-0.973037 0.486519-1.946074 0.973037-2.554223 1.946074-6.446371 11.919705-13.987409 23.352892-21.406818 34.42119-0.973037 1.459556-0.973037 3.040741-0.486518 4.500297 0.486519 1.459556 1.946074 2.432593 3.52726 2.432593zM935.881078 398.945243s-11.433187 38.313339-33.934671 43.786673c0 0 28.339708 11.433187 33.934671 39.408006 0 0 4.500297-40.867561 36.853783-41.840599 0 0-35.394227-18.974225-36.853783-41.35408zM254.876683 74.558974s21.406818 8.514075 25.907115 30.407412c0 0 3.52726-31.380449 27.853189-31.866968 0.486519 0-26.880152-14.473928-27.853189-31.866968-0.12163 0.12163-8.514075 29.434375-25.907115 33.326524zM362.397291 631.136239c9.487112-5.959853 18.487706-12.406224 26.880152-18.974225 0.973037-0.973037 1.946074-2.432593 1.459556-4.013778 0-1.459556-1.459556-3.040741-2.432593-3.52726-1.946074-0.486519-3.52726-0.486519-4.500297 0.486519-8.514075 6.446371-16.906521 12.892743-25.907114 18.487706-1.946074 1.459556-2.554223 4.013778-1.459556 5.959853 1.581185 2.067704 4.013778 2.554223 5.959852 1.581185z" fill="#707070" p-id="8732"></path><path d="M431.239672 563.875045c0.486519-0.486519-0.486519-1.459556-1.459556-2.554223-1.946074-1.459556-4.500297-0.973037-5.959853 0.973037-0.729778 0.973037-1.459556 1.946074-2.189333 3.040741h9.730371c0.12163-0.486519 0.12163-0.973037-0.121629-1.459555zM971.275305 336.184345s-4.500297 14.473928-12.892742 16.420002c0 0 10.46015 4.500297 12.892742 14.960447 0 0 1.459556-15.446965 13.98741-15.446965-0.12163 0-13.500891-7.541038-13.98741-15.933484zM344.031215 632.109277c-17.879558 9.973631-31.380449 15.446965-31.380449 15.446965l3.040741 8.027557c0.486519 0 13.987409-5.473334 32.353486-15.933484l-4.013778-7.541038zM399.372704 590.755197c-1.459556 1.459556-1.459556 4.500297 0 5.959852 1.459556 1.459556 4.500297 1.459556 5.959853 0 5.716593-5.473334 11.068298-11.068298 15.811854-16.906521h-11.189927c-3.40563 3.648889-6.81126 7.297779-10.58178 10.946669zM151.248224 788.525003c-4.013778 0-6.93289 3.040741-6.93289 6.93289 0 4.013778 3.040741 6.93289 6.93289 6.93289h154.469652c2.432593 0 4.500297 0.486519 4.986815 0.973037l0.486519 0.486519c0.973037 0.973037 1.459556 4.986816 1.459556 6.932889 0.973037 22.379855 12.892743 43.786673 31.380449 57.287564 12.892743 9.487112 28.947856 14.473928 44.88134 14.473928 1.459556 0 2.432593-0.486519 4.013778-0.486518 20.433781-0.973037 39.894524-10.46015 53.273785-25.907115 11.919705-12.892743 18.487706-29.920893 18.974225-47.313933 0-0.973037 0.486519-4.500297 1.459556-5.473334l0.486519-0.486519c0.486519-0.486519 1.946074-0.973037 5.473334-0.973037h154.469652c4.013778 0 6.93289-3.040741 6.93289-6.93289 0-4.013778-3.040741-6.93289-6.93289-6.93289h-154.469652c-4.500297 0.486519-10.946668 0.973037-15.446965 5.959853-5.473334 4.986816-5.959853 11.919705-5.959853 15.446965-0.486519 13.500891-5.959853 27.853189-15.446965 38.313339-10.46015 12.406224-26.880152 20.433781-43.300155 20.920299-13.987409 0.486519-28.339708-3.52726-39.894524-11.919705-14.960447-10.46015-24.447559-28.339708-25.420596-46.340896 0-4.013778-0.486519-11.919705-6.446372-16.90652-4.500297-4.013778-9.973631-4.986816-14.960446-4.986816H151.248224z" fill="#707070" p-id="8733"></path><path d="M431.361301 565.3346h-9.730371c-3.648889 4.986816-7.419408 9.730372-11.676446 14.473928h11.189927c3.52726-4.257038 6.689631-8.514075 9.608742-12.892742 0.243259-0.608148 0.486519-1.094667 0.608148-1.581186zM683.986079 283.275448l-27.60993-1.216296 17.514669-15.811854z" fill="#707070" p-id="8734"></path></svg>